<?xml version="1.0" standalone="no"?>
<!DOCTYPE svg PUBLIC "-//W3C//DTD SVG 20010904//EN"
 "http://www.w3.org/TR/2001/REC-SVG-20010904/DTD/svg10.dtd">
<svg version="1.0" xmlns="http://www.w3.org/2000/svg"
 width="500.000000pt" height="500.000000pt" viewBox="0 0 500.000000 500.000000"
 preserveAspectRatio="xMidYMid meet">

<g transform="translate(0.000000,500.000000) scale(0.100000,-0.100000)"
fill="#000000" stroke="none">
<path d="M1295 3394 c-178 -42 -263 -89 -310 -168 -13 -23 -27 -60 -31 -83
-12 -75 48 -166 171 -261 17 -13 22 -21 12 -18 -29 9 -128 77 -170 117 l-38
37 -20 -46 c-11 -26 -27 -71 -35 -101 -13 -52 -13 -57 11 -107 l25 -53 -20
-53 c-11 -29 -38 -80 -60 -113 -22 -33 -40 -63 -40 -67 0 -5 69 -8 153 -8 83
0 157 -4 163 -8 8 -5 -6 -32 -43 -82 -30 -41 -64 -92 -74 -112 l-19 -38 54 0
55 0 7 38 c11 56 30 97 101 215 52 84 70 107 88 107 17 0 25 9 34 41 27 89
-16 170 -127 245 -34 23 -81 58 -105 77 -70 59 -16 46 109 -27 199 -117 212
-130 215 -212 2 -45 -4 -62 -50 -142 -137 -237 -106 -348 144 -527 73 -52 98
-57 36 -7 -30 24 -38 37 -35 54 4 19 3 20 -4 4 -7 -16 -13 -13 -50 30 -138
162 -140 290 -7 471 36 48 72 101 81 118 19 33 21 80 5 99 -6 7 -62 38 -125
69 -212 105 -305 209 -270 302 10 25 79 55 126 55 24 0 87 -5 140 -12 70 -9
103 -9 120 -1 13 6 42 16 65 22 22 6 52 20 65 30 20 17 21 22 10 41 -10 16
-10 25 -2 35 9 11 4 16 -27 25 -39 12 -292 23 -328 14z"/>
<path d="M1727 3299 c3 -10 8 -17 12 -16 3 1 20 -4 37 -11 53 -22 52 -57 -4
-167 -29 -58 -53 -94 -63 -95 -11 0 -27 31 -54 102 -21 56 -40 97 -42 91 -2
-6 12 -52 31 -103 46 -124 46 -125 -100 -175 -63 -21 -114 -42 -114 -46 0 -8
36 2 159 45 44 15 83 23 98 20 37 -10 122 -160 118 -208 -4 -47 -114 -189
-148 -191 -12 -1 -50 18 -85 43 -35 24 -65 42 -68 39 -3 -3 24 -26 60 -52 79
-56 82 -71 26 -139 -22 -26 -40 -53 -40 -59 0 -13 1 -11 54 56 21 26 45 47 53
47 22 0 146 -117 151 -143 2 -12 4 -51 4 -87 l0 -65 12 53 c6 30 19 59 29 66
9 7 17 22 17 32 0 27 134 144 165 144 25 0 40 26 29 53 -9 25 45 159 72 180
29 22 30 40 5 64 -25 23 -68 230 -52 246 17 17 13 45 -9 57 -11 6 -24 9 -28 6
-16 -10 -167 133 -172 162 -5 23 -10 27 -40 28 -19 0 -54 9 -76 21 -39 19 -41
19 -37 2z m228 -163 c44 -41 77 -76 74 -80 -6 -6 -263 -66 -286 -66 -10 0 3
33 44 110 35 66 64 110 73 110 9 0 51 -33 95 -74z m91 -120 c14 -10 25 -43 40
-123 28 -143 28 -143 -112 -143 -58 0 -106 4 -109 10 -3 6 -14 10 -23 10 -11
0 -34 32 -64 85 -51 91 -54 100 -37 111 13 7 243 62 270 63 8 1 24 -5 35 -13z
m48 -292 c3 -9 -6 -50 -21 -91 -19 -54 -33 -78 -50 -86 -14 -6 -23 -19 -23
-33 0 -30 -125 -144 -159 -144 -15 0 -47 21 -86 55 -55 48 -62 59 -60 86 3 41
116 189 145 189 10 0 24 9 30 20 10 18 21 20 114 20 86 0 105 -3 110 -16z"/>
<path d="M1578 3223 c12 -2 30 -2 40 0 9 3 -1 5 -23 4 -22 0 -30 -2 -17 -4z"/>
<path d="M1393 2278 c-31 -15 -29 -30 2 -16 14 6 25 15 25 20 0 9 1 10 -27 -4z"/>
</g>
</svg>
